<?xml version="1.0" encoding="utf-8"?>
<!-- Generator: Adobe Illustrator 17.0.0, SVG Export Plug-In . SVG Version: 6.00 Build 0)  -->
<!DOCTYPE svg PUBLIC "-//W3C//DTD SVG 1.1//EN" "http://www.w3.org/Graphics/SVG/1.1/DTD/svg11.dtd">
<svg version="1.1" id="Слой_1" xmlns="http://www.w3.org/2000/svg" xmlns:xlink="http://www.w3.org/1999/xlink" x="0px" y="0px"
	 width="120px" height="120px" viewBox="0 0 120 120" enable-background="new 0 0 120 120" xml:space="preserve">
<g>
	<g id="XMLID_358_">
		<path id="XMLID_623_" d="M37.738,21.759h-0.074l-0.221,0.037l-0.294,0.072l-0.441,0.109l-0.479,0.183l-0.551,0.218l-1.25,0.51
			l-1.287,0.655l-1.25,0.802l-0.551,0.473l-0.441,0.474l-0.405,0.51l-0.293,0.51l-0.038,0.254l0.074,0.183l0.184,0.145l0.183,0.073
			h0.258l0.257-0.183l0.479-0.655l0.551-0.584l0.588-0.473l0.625-0.401l0.699-0.292l0.698-0.254l0.735-0.147l0.773-0.109
			l0.735-0.036h0.808l1.545,0.145l1.544,0.292l1.471,0.365l2.721,0.765l1.361,0.364l1.359,0.292l1.361,0.183l1.397,0.109
			l1.398-0.036l1.397-0.183l1.728-0.437l0.882-0.292l0.846-0.328l0.846-0.437l0.846-0.438l0.773-0.509l0.734-0.584l0.735,0.584
			l0.773,0.509l0.808,0.438l0.846,0.437l0.883,0.328l0.882,0.292l1.728,0.437l1.397,0.183l1.398,0.036l1.359-0.109l1.398-0.183
			l1.323-0.292L74.91,25.4l2.72-0.765l1.471-0.365l1.545-0.292l1.544-0.145h0.809l0.772,0.036l0.735,0.109l0.735,0.147l0.735,0.254
			l0.662,0.292l0.663,0.401l0.588,0.473l0.551,0.584l0.479,0.655l0.11,0.109l0.11,0.073h0.257l0.221-0.073l0.184-0.145l0.074-0.183
			l-0.038-0.254l-0.293-0.51l-0.405-0.51l-0.479-0.474l-0.514-0.473l-1.25-0.802l-1.287-0.655l-1.25-0.51l-0.551-0.218l-0.515-0.183
			l-0.405-0.109l-0.331-0.072l-0.184-0.037H82.3l-0.11,0.183l0.038,0.183l0.11,0.29l-0.589-0.181l-0.662-0.073l-0.735-0.073h-0.735
			l-1.581,0.147l-1.544,0.218l-0.735,0.145l-0.662,0.183l-0.625,0.145l-0.515,0.147l-0.441,0.145l-0.294,0.109l-0.184,0.073
			L73,23.471l0.846,0.911l-1.729,0.147h-1.69l-1.691-0.22l-1.691-0.364l0.808-0.073l0.809-0.109l1.581-0.364l0.956-0.292l1.03-0.401
			l0.956-0.51l0.403-0.328l0.331-0.364l0.294-0.474l0.184-0.546l0.036-0.546l-0.073-0.546l-0.258-0.51l-0.405-0.401l-0.477-0.254
			l-0.551-0.073l-0.331,0.036l-0.332,0.109l-0.221,0.183l-0.221,0.183l-0.147,0.254l-0.074,0.256l-0.073,0.546l0.11,0.546
			l0.293,0.51l0.221,0.183l0.258,0.181l0.294,0.109l0.331,0.073l-0.589,0.401L71.6,22.088l-0.663,0.292l-0.662,0.254l-1.397,0.329
			l-1.397,0.145h-0.515h-0.662l-0.773-0.036l-0.772-0.073l-0.772-0.145l-0.699-0.256l-0.515-0.328l-0.183-0.183l-0.148-0.254h-0.073
			l-0.148,0.036l-0.257,0.073l-0.258,0.109l-0.588,0.254l-0.221,0.109l-0.184,0.109l-0.036-0.036l0.588-0.62l0.515-0.691
			l0.479-0.802l0.293-0.874l0.184-0.911v-0.947l-0.074-0.51l-0.183-0.473l-0.221-0.437l-0.294-0.438l-0.441-0.4l-0.479-0.401
			l-0.551-0.292l-0.441-0.036h-0.221h-0.184l-0.294,0.109L59.1,14.91l-0.551,0.401l-0.479,0.473l-0.294,0.438l-0.221,0.437
			l-0.183,0.473l-0.074,0.51v0.947l0.147,0.911l0.331,0.874l0.442,0.802l0.514,0.691l0.589,0.62v0.036l-0.184-0.109l-0.257-0.109
			l-0.551-0.254l-0.294-0.109l-0.221-0.073l-0.148-0.036h-0.073l-0.148,0.254l-0.183,0.183l-0.553,0.328l-0.662,0.256l-0.772,0.145
			l-0.809,0.073l-0.735,0.036h-0.698h-0.515l-1.397-0.145l-1.398-0.329l-0.662-0.254l-0.625-0.292l-0.588-0.364l-0.589-0.401
			l0.331-0.073l0.294-0.109l0.258-0.181l0.221-0.183l0.293-0.51l0.11-0.546l-0.073-0.546l-0.074-0.256l-0.184-0.254l-0.183-0.183
			l-0.258-0.183L47.7,18.19l-0.331-0.036l-0.551,0.073l-0.515,0.254l-0.367,0.401l-0.258,0.51l-0.11,0.546l0.038,0.546l0.183,0.546
			l0.294,0.474l0.331,0.364l0.405,0.328l0.956,0.51l1.03,0.401l0.992,0.292l1.581,0.364l0.772,0.109l0.809,0.073l-1.655,0.364
			l-1.691,0.22h-1.69l-1.729-0.147l0.809-0.911l-0.036-0.072l-0.184-0.073l-0.294-0.109l-0.405-0.145l-0.515-0.147l-0.625-0.145
			l-0.662-0.183l-0.735-0.145l-1.544-0.218l-1.581-0.147H39.65l-0.735,0.073l-0.663,0.073l-0.588,0.181l0.147-0.29v-0.183
			L37.738,21.759z M59.872,15.675L59.872,15.675l0.147-0.181l0.148,0.181l0.367,0.474l0.221,0.473l0.148,0.51l0.074,0.51
			l-0.074,0.474l-0.184,0.473l-0.294,0.474l-0.405,0.4l-0.403-0.4L59.32,18.59l-0.184-0.473l-0.074-0.474l0.038-0.51l0.147-0.51
			l0.258-0.473L59.872,15.675z M58.475,19.902L58.475,19.902l-0.221-0.548l-0.148-0.582l-0.036-0.62l0.074-0.62l0.147,0.765
			l0.294,0.766l0.477,0.655l0.663,0.582l0.147,0.073h0.147h0.148l0.147-0.073l0.625-0.582l0.479-0.655l0.331-0.766l0.11-0.765
			l0.074,0.62v0.62l-0.148,0.582l-0.221,0.548l-0.699,1.057l-0.846,0.947l-0.441-0.474l-0.403-0.473L58.475,19.902z"/>
		<g id="XMLID_357_">
			<polygon id="XMLID_620_" points="2.219,32.107 2.293,32.107 2.55,32.107 2.955,32.107 3.506,32.07 4.205,32.07 5.087,32.034 
				6.08,31.998 7.183,31.961 8.432,31.925 9.793,31.889 11.264,31.851 12.845,31.778 14.537,31.742 16.338,31.669 18.25,31.633 
				20.236,31.56 22.331,31.524 24.463,31.488 26.707,31.45 29.023,31.414 31.377,31.378 33.766,31.341 38.766,31.305 43.915,31.269 
				49.209,31.269 54.577,31.232 60.018,31.196 70.792,31.269 76.05,31.269 81.233,31.305 86.235,31.341 88.624,31.378 
				90.977,31.414 93.294,31.45 95.5,31.488 97.669,31.524 99.729,31.56 101.713,31.633 103.625,31.669 105.427,31.742 
				107.118,31.778 108.699,31.851 110.207,31.889 111.567,31.925 112.818,31.961 113.92,31.998 114.914,32.034 115.796,32.07 
				116.495,32.07 117.046,32.107 117.451,32.107 117.708,32.107 117.782,32.107 117.708,32.107 117.451,32.107 117.046,32.143 
				116.495,32.143 115.796,32.179 114.914,32.216 113.92,32.252 112.818,32.288 111.567,32.326 110.207,32.362 108.699,32.398 
				107.118,32.471 105.427,32.507 103.625,32.58 101.713,32.616 99.729,32.689 97.669,32.725 95.5,32.763 93.294,32.799 
				90.977,32.836 88.624,32.872 86.235,32.908 81.233,32.945 76.05,32.981 70.792,33.017 60.018,33.054 54.577,33.017 
				49.209,33.017 43.915,32.981 38.766,32.945 33.766,32.908 31.377,32.872 29.023,32.836 26.707,32.799 24.463,32.725 
				22.331,32.689 20.236,32.653 18.25,32.616 16.338,32.544 14.537,32.507 12.845,32.471 11.264,32.398 9.793,32.362 8.432,32.326 
				7.183,32.288 6.08,32.252 5.087,32.216 4.205,32.179 3.506,32.143 2.955,32.143 2.55,32.107 2.293,32.107 			"/>
			<polygon id="XMLID_619_" points="2.219,70.47 2.293,70.47 2.55,70.47 2.955,70.47 3.506,70.434 4.205,70.434 5.087,70.398 
				6.08,70.361 7.183,70.325 8.432,70.289 9.793,70.252 11.264,70.216 12.845,70.142 14.537,70.106 16.338,70.033 18.25,69.997 
				20.236,69.924 22.331,69.888 24.463,69.852 26.707,69.815 29.023,69.779 31.377,69.741 33.766,69.705 38.766,69.669 
				43.915,69.632 49.209,69.632 54.577,69.596 60.018,69.56 70.792,69.632 76.05,69.632 81.233,69.669 86.235,69.705 88.624,69.741 
				90.977,69.779 93.294,69.815 95.5,69.852 97.669,69.888 99.729,69.924 101.713,69.997 103.625,70.033 105.427,70.106 
				107.118,70.142 108.699,70.216 110.207,70.252 111.567,70.289 112.818,70.325 113.92,70.361 114.914,70.398 115.796,70.434 
				116.495,70.434 117.046,70.47 117.451,70.47 117.708,70.47 117.782,70.47 117.708,70.47 117.451,70.47 117.046,70.507 
				116.495,70.507 115.796,70.543 114.914,70.579 113.92,70.617 112.818,70.653 111.567,70.689 110.207,70.726 108.699,70.762 
				107.118,70.835 105.427,70.871 103.625,70.944 101.713,70.98 99.729,71.054 97.669,71.09 95.5,71.127 93.294,71.163 
				90.977,71.199 88.624,71.236 86.235,71.272 81.233,71.308 76.05,71.345 70.792,71.381 60.018,71.417 54.577,71.381 
				49.209,71.381 43.915,71.345 38.766,71.308 33.766,71.272 31.377,71.236 29.023,71.199 26.707,71.163 24.463,71.09 
				22.331,71.054 20.236,71.018 18.25,70.98 16.338,70.908 14.537,70.871 12.845,70.835 11.264,70.762 9.793,70.726 8.432,70.689 
				7.183,70.653 6.08,70.617 5.087,70.579 4.205,70.543 3.506,70.507 2.955,70.507 2.55,70.47 2.293,70.47 			"/>
		</g>
	</g>
	<g id="XMLID_356_">
		<path id="XMLID_629_" d="M17.919,47.883l-0.038-0.693l-0.11-0.62l-0.183-0.546l-0.258-0.437l-0.367-0.365l-0.405-0.29
			l-0.479-0.183l-0.551-0.109l-0.698-0.073l-0.148-0.036l-0.073-0.073l-0.074-0.145V44.13l0.036-0.183l0.074-0.109l0.11-0.073
			l0.184-0.036h0.367l1.104,0.073l0.624,0.036h0.479h0.367h0.258H18.8l0.846-0.073l1.103-0.072l0.625-0.037l0.663-0.072l0.808-0.073
			l0.773-0.036l0.698-0.037h0.625l0.772,0.037l0.735,0.036l0.662,0.109l0.663,0.145l0.625,0.183l0.551,0.218l0.551,0.292
			l0.477,0.292l0.442,0.364l0.367,0.365l0.331,0.401l0.294,0.437l0.221,0.473l0.147,0.474l0.074,0.51l0.036,0.546l-0.036,0.62
			l-0.11,0.546l-0.184,0.546l-0.257,0.474l-0.368,0.4l-0.403,0.365l-0.479,0.328l-0.551,0.292L29.28,52l-0.184,0.109l-0.11,0.109
			l-0.036,0.073l0.036,0.109l0.11,0.109l0.184,0.072l0.257,0.037l0.883,0.218l0.772,0.364l0.662,0.474l0.589,0.582l0.477,0.655
			l0.331,0.766l0.184,0.838l0.074,0.91l-0.038,0.693l-0.073,0.693l-0.184,0.618l-0.184,0.584l-0.294,0.546l-0.331,0.51l-0.403,0.474
			L31.56,61.98l-0.515,0.401l-0.551,0.328l-0.588,0.29l-0.625,0.256l-0.699,0.183l-0.735,0.145l-0.772,0.073l-0.809,0.036
			l-2.978-0.109l-2.279-0.036h-1.066l-0.994,0.036l-0.955,0.073l-0.846,0.072l-0.92,0.073l-0.184-0.036l-0.147-0.073l-0.074-0.109
			L15.787,63.4l0.036-0.145l0.074-0.109l0.11-0.073l0.184-0.036l0.403-0.109l0.331-0.183l0.294-0.292l0.258-0.328l0.183-0.401
			l0.148-0.51l0.073-0.546l0.038-0.655C17.919,60.013,17.919,47.883,17.919,47.883z M21.302,46.606v4.19l0.036,0.365l0.074,0.328
			l0.11,0.292l0.183,0.181l0.258,0.183l0.331,0.109l0.405,0.037l0.477,0.036l2.022,0.036l0.92-0.036l0.589-0.109l0.514-0.183
			l0.442-0.292l0.367-0.328l0.257-0.401l0.222-0.473l0.11-0.584l0.036-0.62l-0.074-1.019l-0.294-0.947l-0.441-0.802l-0.588-0.729
			l-0.772-0.582L25.64,44.82l-0.994-0.254l-1.103-0.073l-0.625,0.037l-0.479,0.072l-0.403,0.147l-0.294,0.183l-0.184,0.254
			l-0.147,0.364l-0.074,0.474L21.302,46.606z M21.302,56.335v2.405l0.036,0.582l0.11,1.203l0.074,0.51l0.183,0.437L22,61.8
			l0.368,0.328l0.477,0.218l0.589,0.147l0.662,0.109l0.735,0.036l0.772-0.036l0.662-0.073l0.663-0.109l0.551-0.147l0.515-0.218
			l0.441-0.254l0.367-0.292l0.331-0.364l0.405-0.657l0.294-0.727l0.147-0.766l0.074-0.838l-0.036-0.801l-0.148-0.766l-0.257-0.618
			l-0.331-0.584l-0.441-0.474l-0.515-0.4L27.7,54.186l-0.735-0.256l-0.92-0.218l-0.992-0.145l-1.03-0.073l-1.103-0.036l-0.479,0.036
			l-0.367,0.109l-0.294,0.183l-0.184,0.218l-0.11,0.328l-0.11,0.51l-0.036,0.655L21.302,56.335z M52.629,43.474h0.147l0.184,0.036
			l0.184,0.036l0.257,0.037h0.331l0.405,0.036l1.545,0.073l1.47-0.073l0.699-0.036l0.589-0.073l0.477-0.036L59.1,43.51l0.147,0.073
			l0.038,0.109l0.036,0.181l-0.074,0.256l-0.11,0.073l-0.184,0.036l-0.551,0.073l-0.257,0.072l-0.258,0.147l-0.183,0.218
			l-0.148,0.292l-0.147,0.328l-0.074,0.4l-0.073,0.474v0.51v1.275v1.785l-0.038,2.004l-0.074,1.821l-0.147,1.604l-0.074,0.729
			l-0.11,0.655l-0.221,1.202l-0.293,1.094l-0.368,0.91l-0.441,0.802l-0.625,0.802l-0.699,0.691l-0.808,0.584l-0.883,0.473
			l-0.992,0.365l-1.066,0.254l-1.176,0.183l-1.287,0.036l-0.92-0.036l-0.846-0.037l-0.808-0.109l-0.773-0.181l-0.698-0.183
			l-0.662-0.256l-0.589-0.29l-0.551-0.328l-0.662-0.548l-0.553-0.618l-0.477-0.766l-0.405-0.874l-0.294-0.983l-0.221-1.094
			l-0.147-1.202l-0.038-1.312l0.148-5.684l-0.038-2.623v-0.473l-0.036-0.401l-0.074-0.292l-0.073-0.254l-0.294-0.365l-0.257-0.181
			l-0.294-0.147l-0.772-0.292l-0.846-0.181l-0.258-0.037l-0.147-0.109l-0.11-0.145l-0.038-0.147l0.038-0.181l0.073-0.109
			l0.148-0.073l0.221-0.036l0.257,0.036h0.331l0.883,0.073l0.772,0.072l0.662,0.037h0.589l1.507-0.037l1.691-0.109l0.588-0.036
			l0.222-0.036h0.183l0.331,0.036l0.258,0.073l0.147,0.145l0.038,0.183l-0.038,0.183l-0.074,0.145l-0.183,0.073l-0.368,0.109
			l-0.441,0.109l-0.331,0.145l-0.257,0.183l-0.184,0.218l-0.148,0.292l-0.11,0.437l-0.073,0.51l-0.074,0.655l-0.221,3.68
			l0.036,2.587v0.874l0.038,0.801v0.729l0.036,0.657l0.074,0.62l0.036,0.509l0.11,0.474l0.074,0.401l0.257,0.729l0.331,0.655
			l0.441,0.62l0.515,0.546l0.441,0.401l0.515,0.328l0.515,0.254l0.551,0.256l0.589,0.181l0.625,0.111l0.662,0.072l0.662,0.037
			l0.699-0.037l0.662-0.072l0.625-0.111l0.589-0.181l0.551-0.256l0.515-0.29l0.514-0.329l0.442-0.4l0.551-0.62l0.441-0.729
			l0.367-0.911l0.294-1.021l0.11-0.546l0.11-0.655l0.074-0.655l0.074-0.766l0.073-0.801l0.038-0.874l0.036-0.947v-0.985v-1.202
			l-0.074-2.951l-0.11-0.657l-0.147-0.546l-0.294-0.51l-0.331-0.4l-0.405-0.329l-0.477-0.254l-0.551-0.145l-0.625-0.037
			l-0.258-0.036l-0.184-0.073l-0.11-0.145l-0.036-0.183l0.036-0.145l0.038-0.109L52.629,43.474z M68.733,57.937v0.655l0.036,0.62
			l0.036,0.548l0.074,0.509l0.074,0.438l0.073,0.364l0.11,0.328l0.11,0.292l0.332,0.437l0.441,0.328l0.551,0.218l0.699,0.147
			l0.257,0.036l0.221,0.109l0.11,0.145l0.036,0.183l-0.036,0.183l-0.074,0.145L71.6,63.659l-0.221,0.036h-0.222l-0.367-0.036
			l-1.25-0.073l-1.176-0.036l-0.92,0.036L66.6,63.622l-1.25,0.109l-0.956,0.073l-0.368,0.036h-0.221l-0.221-0.036L63.4,63.768
			l-0.073-0.109l-0.038-0.183l0.074-0.256l0.074-0.109l0.147-0.072l0.441-0.147l0.405-0.181l0.294-0.218l0.221-0.256l0.184-0.292
			l0.11-0.364l0.073-0.437l0.038-0.51V59.25v-0.546V48.137l-0.038-0.802L65.24,46.68l-0.148-0.51l-0.183-0.364l-0.405-0.437
			l-0.551-0.365l-0.625-0.254l-0.773-0.147l-0.257-0.036l-0.184-0.109l-0.11-0.183l-0.036-0.181l0.036-0.183l0.074-0.109l0.11-0.073
			l0.184-0.036h0.221l0.294,0.036l1.213,0.073l1.287,0.036h0.772l0.883-0.036l0.918-0.037l1.03-0.072l1.14-0.109l0.956-0.037
			l0.772-0.072h0.551l0.699,0.036l0.662,0.073l0.625,0.109l0.588,0.181l0.553,0.183l0.551,0.292l0.477,0.292l0.479,0.364
			l0.441,0.401l0.368,0.401l0.331,0.437l0.257,0.474l0.184,0.473l0.147,0.51l0.074,0.546l0.036,0.546l-0.036,0.729l-0.147,0.655
			l-0.258,0.657l-0.367,0.62L77.631,52l-0.514,0.473l-0.625,0.437l-0.663,0.329l-0.221,0.145l-0.073,0.145l0.147,0.365l0.184,0.292
			l0.221,0.4l1.323,2.333l1.509,2.659l0.367,0.62l0.368,0.546l0.331,0.401l0.331,0.292l0.331,0.254l0.331,0.145l0.367,0.109
			l0.405,0.037l0.625-0.073l0.331-0.036l0.184,0.072l0.036,0.109l0.038,0.147l-0.074,0.218l-0.221,0.254l-0.405,0.256l-0.515,0.254
			l-0.588,0.218l-0.551,0.147l-0.515,0.109l-0.479,0.036l-0.735-0.073l-0.698-0.29l-0.699-0.438l-0.662-0.655l-0.331-0.401
			l-0.368-0.51l-0.367-0.546l-0.405-0.655l-0.405-0.765l-0.477-0.802l-0.442-0.911l-0.514-0.983l-0.368-0.729l-0.331-0.582
			l-0.331-0.438l-0.257-0.29l-0.294-0.183l-0.405-0.145l-0.441-0.073l-0.551-0.036h-0.92l-0.662,0.109l-0.11,0.072l-0.038,0.183
			l-0.073,0.183v0.254L68.733,57.937L68.733,57.937z M68.733,46.534v5.064v0.401l0.073,0.364l0.074,0.218l0.11,0.183l0.147,0.109
			l0.258,0.073l0.331,0.036l0.405,0.036h0.625h0.551h0.515l0.441-0.036h0.367l0.331-0.036h0.258l0.184-0.037l0.588-0.181
			l0.294-0.183l0.257-0.218l0.479-0.546l0.367-0.62l0.184-0.693l0.074-0.801l-0.074-1.057l-0.294-0.947l-0.441-0.875l-0.662-0.765
			l-0.772-0.62l-0.883-0.437l-0.956-0.292l-1.066-0.073L70.02,44.64l-0.368,0.072l-0.331,0.109L69.1,45.004l-0.184,0.256
			l-0.11,0.328l-0.036,0.437L68.733,46.534z M95.242,43.292l1.14,0.036l1.066,0.147l0.994,0.181l0.956,0.292l0.918,0.365
			l0.846,0.473l0.772,0.51l0.735,0.62l0.663,0.691l0.588,0.729l0.479,0.802l0.403,0.838l0.294,0.911l0.221,0.947l0.148,0.983
			l0.036,1.057l-0.036,1.166l-0.148,1.094l-0.221,1.057l-0.331,1.019l-0.405,0.985l-0.515,0.91l-0.588,0.875l-0.662,0.838
			l-0.735,0.729l-0.846,0.655l-0.883,0.546l-0.918,0.473l-1.03,0.329l-1.066,0.254l-1.14,0.183l-1.213,0.036l-1.176-0.036
			l-1.104-0.147l-1.029-0.218l-0.994-0.29l-0.918-0.401l-0.883-0.474l-0.808-0.546l-0.735-0.655l-0.662-0.729l-0.589-0.765
			l-0.477-0.838l-0.405-0.911l-0.294-0.947l-0.221-1.021l-0.147-1.057l-0.038-1.13l0.038-1.019l0.147-0.985l0.221-0.983l0.294-0.983
			l0.405-0.947l0.441-0.838l0.551-0.802l0.588-0.693l0.735-0.727l0.846-0.657l0.956-0.582l1.066-0.474l1.104-0.364l1.176-0.292
			l1.176-0.145L95.242,43.292z M94.213,44.384l-0.735,0.037l-0.662,0.109l-0.663,0.145l-0.588,0.256l-0.551,0.29L90.5,45.587
			l-0.479,0.437l-0.441,0.51l-0.405,0.582l-0.331,0.62l-0.257,0.655L88.33,49.12l-0.183,0.802l-0.11,0.838l-0.074,0.874
			l-0.038,0.947l0.038,1.13l0.11,1.056l0.147,1.021l0.221,0.983l0.294,0.874l0.368,0.875l0.441,0.765l0.477,0.765l0.515,0.657
			l0.589,0.582l0.624,0.51l0.663,0.401l0.698,0.292l0.735,0.218l0.773,0.145l0.808,0.036l0.735-0.036l0.699-0.109l0.662-0.183
			l0.625-0.254l0.588-0.328l0.515-0.401l0.515-0.51l0.479-0.546l0.441-0.62l0.367-0.655l0.294-0.729l0.257-0.766l0.184-0.801
			l0.147-0.874l0.074-0.911l0.038-0.947l-0.038-1.166l-0.147-1.13l-0.258-1.092l-0.367-1.094l-0.479-1.019l-0.514-0.947
			l-0.589-0.802l-0.662-0.693l-0.515-0.437l-0.551-0.401l-0.553-0.328l-0.588-0.254L96.16,44.64l-0.625-0.147l-0.662-0.072
			L94.213,44.384z"/>
		<polygon id="XMLID_606_" points="9.242,55.497 9.206,55.788 9.132,56.08 8.985,56.335 8.801,56.589 8.543,56.772 8.286,56.918 
			7.991,56.99 7.697,57.027 7.366,56.99 7.073,56.918 6.779,56.772 6.558,56.589 6.374,56.335 6.227,56.08 6.153,55.788 
			6.117,55.497 6.153,55.169 6.227,54.877 6.374,54.585 6.558,54.367 6.779,54.186 7.073,54.039 7.366,53.966 7.697,53.93 
			7.991,53.966 8.286,54.039 8.543,54.186 8.801,54.367 8.985,54.585 9.132,54.877 9.206,55.169 		"/>
		<polygon id="XMLID_605_" points="113.56,55.497 113.523,55.788 113.449,56.08 113.303,56.335 113.119,56.589 112.861,56.772 
			112.604,56.918 112.309,56.99 112.015,57.027 111.684,56.99 111.391,56.918 111.097,56.772 110.876,56.589 110.692,56.335 
			110.545,56.08 110.471,55.788 110.435,55.497 110.471,55.169 110.545,54.877 110.692,54.585 110.876,54.367 111.097,54.186 
			111.391,54.039 111.684,53.966 112.015,53.93 112.309,53.966 112.604,54.039 112.861,54.186 113.119,54.367 113.303,54.585 
			113.449,54.877 113.523,55.169 		"/>
		<polygon id="XMLID_604_" points="45.753,38.555 45.716,38.847 45.642,39.138 45.496,39.393 45.312,39.648 45.053,39.83 
			44.797,39.976 44.502,40.049 44.209,40.085 43.877,40.049 43.584,39.976 43.289,39.83 43.069,39.648 42.885,39.393 42.738,39.138 
			42.664,38.847 42.628,38.555 42.664,38.228 42.738,37.936 42.885,37.644 43.069,37.426 43.289,37.243 43.584,37.098 
			43.877,37.025 44.209,36.989 44.502,37.025 44.797,37.098 45.053,37.243 45.312,37.426 45.496,37.644 45.642,37.936 
			45.716,38.228 		"/>
		<polygon id="XMLID_603_" points="54.871,38.555 54.835,38.847 54.761,39.138 54.614,39.393 54.43,39.648 54.172,39.83 
			53.915,39.976 53.621,40.049 53.326,40.085 52.996,40.049 52.702,39.976 52.408,39.83 52.188,39.648 52.003,39.393 51.857,39.138 
			51.783,38.847 51.746,38.555 51.783,38.228 51.857,37.936 52.003,37.644 52.188,37.426 52.408,37.243 52.702,37.098 
			52.996,37.025 53.326,36.989 53.621,37.025 53.915,37.098 54.172,37.243 54.43,37.426 54.614,37.644 54.761,37.936 54.835,38.228 
					"/>
	</g>
	<g id="XMLID_360_">
		<path id="XMLID_613_" d="M30.684,96.995h-0.735l-1.176-0.037l-1.617,0.037H25.17l-0.662,0.036h-0.294H24.03l-0.183-0.036
			l-0.074-0.147l0.036-0.109l0.148-0.181l0.183-0.292l0.294-0.365l0.994-1.311l0.918-1.312l0.846-1.348l0.735-1.384l0.331-0.691
			l0.294-0.657l0.257-0.618l0.184-0.584l0.294-1.092l0.074-0.947l-0.038-0.548l-0.11-0.473l-0.221-0.401l-0.257-0.364l-0.368-0.292
			L28,83.696l-0.44-0.146l-0.515-0.037l-0.735,0.073l-0.662,0.218l-0.625,0.328l-0.589,0.51l-0.257,0.218l-0.11,0.073l-0.11,0.036
			l-0.148-0.036l-0.036-0.145l0.036-0.218l0.148-0.256l0.257-0.328l0.331-0.365l0.699-0.546l0.772-0.401l0.809-0.218l0.882-0.072
			l0.699,0.036l0.625,0.145l0.551,0.256l0.477,0.364l0.405,0.437l0.294,0.51l0.147,0.584l0.074,0.62l-0.074,0.655l-0.147,0.765
			l-0.294,0.802l-0.405,0.911l-1.139,2.113l-1.324,2.004l-1.25,1.857l-0.221,0.329l-0.147,0.254l-0.074,0.183l0.036,0.072
			l0.11,0.109l0.222,0.073L26.53,95.5l0.367,0.037l0.442,0.036l0.514,0.036h0.625l0.663-0.036l0.588-0.036l0.515-0.073l0.405-0.109
			l0.331-0.145l0.331-0.218l0.257-0.256l0.258-0.292l0.184-0.218l0.147-0.072l0.147,0.036l0.038,0.109l-0.074,0.218l-0.184,0.256
			l-0.221,0.4l-0.551,0.911L30.684,96.995z M38.921,82.385l0.477,0.036l0.479,0.073l0.441,0.181l0.405,0.22l0.367,0.254l0.368,0.364
			l0.331,0.401l0.331,0.474l0.294,0.51l0.257,0.582l0.405,1.239l0.221,1.384l0.074,1.493L43.297,91.2l-0.221,1.42l-0.405,1.312
			L42.119,95.1l-0.331,0.509l-0.368,0.438l-0.367,0.364l-0.405,0.328l-0.405,0.218l-0.441,0.147l-0.477,0.109l-0.479,0.036
			l-0.551-0.036L37.78,97.14l-0.477-0.145l-0.479-0.183l-0.441-0.254l-0.368-0.329l-0.403-0.364l-0.332-0.437l-0.293-0.474
			l-0.258-0.546l-0.221-0.546l-0.184-0.62l-0.257-1.312l-0.074-1.456l0.038-0.985l0.11-0.947l0.183-0.947l0.258-0.947l0.367-0.91
			l0.368-0.802l0.441-0.729l0.477-0.584l0.589-0.546l0.662-0.401l0.699-0.218L38.921,82.385z M38.111,83.55l-0.588,0.072
			l-0.553,0.292l-0.514,0.437l-0.405,0.62l-0.368,0.802l-0.257,0.911l-0.148,1.057l-0.036,1.128l0.074,1.495l0.221,1.42l0.367,1.275
			l0.515,1.203l0.294,0.51l0.331,0.437l0.331,0.4l0.368,0.292l0.367,0.256l0.405,0.145l0.405,0.109l0.405,0.036l0.662-0.109
			l0.625-0.254l0.477-0.51l0.441-0.655l0.368-0.838l0.257-0.983l0.148-1.167l0.036-1.275l-0.074-1.458l-0.221-1.347l-0.367-1.203
			l-0.515-1.092l-0.294-0.474l-0.331-0.4l-0.367-0.365l-0.368-0.254l-0.405-0.218l-0.405-0.183l-0.441-0.073L38.111,83.55z"/>
		<path id="XMLID_607_" d="M83.035,84.424v10.311l0.038,0.51l0.073,0.401l0.11,0.328l0.184,0.254l0.221,0.183l0.331,0.109
			l0.405,0.037l0.479,0.036h0.147l0.294,0.073l0.11,0.036l0.036,0.145l-0.036,0.073l-0.074,0.073l-0.147,0.036h-0.184h-0.515
			l-2.389-0.036h-0.479h-0.405h-0.331l-0.293,0.036l-0.479,0.036h-0.367l-0.222-0.036l-0.073-0.109l0.073-0.183l0.112-0.036
			l0.147-0.036l0.588-0.073l0.479-0.109l0.367-0.256l0.184-0.364l0.074-0.546v-9.8v-0.292l-0.038-0.256l-0.073-0.218l-0.074-0.145
			l-0.11-0.109l-0.147-0.037l-0.479-0.072l-0.477,0.036l-0.441,0.147l-0.184,0.072l-0.11,0.037l-0.11-0.037l-0.038-0.109
			l0.074-0.218l0.221-0.183l0.368-0.181l0.477-0.183l0.625-0.218l0.625-0.256l0.551-0.364l0.551-0.437l0.184-0.147l0.11-0.036
			l0.184,0.073l0.036,0.181l-0.036,0.183l-0.038,0.256l-0.036,0.254l-0.036,0.328l-0.038,0.365v0.473H83.035z M88.808,89.379
			l0.808-0.655l0.809-0.437l0.772-0.292l0.809-0.073l0.809,0.073l0.734,0.254l0.663,0.365l0.588,0.582l0.515,0.693l0.331,0.765
			l0.221,0.838l0.074,0.911l-0.074,0.983l-0.221,0.911l-0.405,0.838L94.727,95.9l-0.625,0.62l-0.735,0.437l-0.773,0.292
			l-0.808,0.073l-0.515-0.037l-0.515-0.072l-0.477-0.109l-0.442-0.183l-0.441-0.254l-0.405-0.256l-0.367-0.328l-0.331-0.401
			l-0.589-0.874l-0.441-0.985l-0.257-1.092l-0.074-1.202l0.074-0.947l0.184-0.985l0.293-0.983l0.405-0.983l0.515-0.911l0.625-0.874
			l0.662-0.838l0.772-0.766l0.479-0.364l0.515-0.365l1.213-0.691l0.589-0.256l0.551-0.181l0.441-0.109l0.405-0.037l0.257,0.073
			l0.11,0.145l-0.073,0.147l-0.258,0.109l-1.14,0.401l-0.992,0.582l-0.92,0.655l-0.846,0.838l-0.698,0.985l-0.551,1.019
			l-0.441,1.057L88.808,89.379z M91.198,88.797l-0.551,0.036l-0.477,0.183l-0.442,0.254l-0.403,0.365l-0.294,0.473l-0.184,0.51
			l-0.147,0.62l-0.038,0.655l0.074,0.911l0.184,0.874l0.294,0.838l0.441,0.729L90.17,95.9l0.588,0.437l0.589,0.292l0.698,0.073
			l0.551-0.036l0.515-0.183l0.441-0.256l0.368-0.4l0.331-0.51l0.221-0.546l0.148-0.584l0.036-0.693l-0.074-0.947l-0.184-0.874
			l-0.293-0.765l-0.441-0.729l-0.515-0.584l-0.589-0.437l-0.662-0.292L91.198,88.797z"/>
		<g id="XMLID_359_">
			<polygon id="XMLID_622_" points="49.65,100.784 71.086,79.543 71.601,79.724 72.189,79.724 72.704,79.579 73.182,79.251 
				73.403,78.959 73.586,78.668 73.66,78.34 73.696,78.012 73.66,77.684 73.586,77.357 73.403,77.065 73.182,76.773 72.888,76.555 
				72.593,76.409 72.263,76.3 71.932,76.3 71.601,76.3 71.27,76.409 70.976,76.555 70.682,76.773 70.351,77.247 70.167,77.758 
				70.167,78.304 70.351,78.85 48.951,100.055 48.4,99.872 47.849,99.872 47.334,100.055 46.855,100.383 46.635,100.674 
				46.488,100.965 46.378,101.294 46.378,101.622 46.378,101.949 46.488,102.277 46.635,102.569 46.855,102.859 47.15,103.078 
				47.444,103.26 47.775,103.334 48.106,103.37 48.436,103.334 48.767,103.26 49.061,103.078 49.356,102.859 49.687,102.386 
				49.835,101.876 49.835,101.294 			"/>
			<polygon id="XMLID_621_" points="70.351,100.784 48.951,79.543 48.4,79.724 47.849,79.724 47.334,79.579 46.855,79.251 
				46.635,78.959 46.488,78.668 46.378,78.34 46.378,78.012 46.378,77.684 46.488,77.357 46.635,77.065 46.855,76.773 47.15,76.555 
				47.444,76.409 47.775,76.3 48.106,76.3 48.436,76.3 48.767,76.409 49.061,76.555 49.356,76.773 49.687,77.247 49.835,77.758 
				49.835,78.304 49.65,78.85 71.086,100.055 71.601,99.872 72.189,99.872 72.704,100.055 73.182,100.383 73.403,100.674 
				73.586,100.965 73.66,101.294 73.696,101.622 73.66,101.949 73.586,102.277 73.403,102.569 73.182,102.859 72.888,103.078 
				72.593,103.26 72.263,103.334 71.932,103.37 71.601,103.334 71.27,103.26 70.976,103.078 70.682,102.859 70.351,102.386 
				70.167,101.876 70.167,101.294 			"/>
			<g id="XMLID_469_">
				<polygon id="XMLID_595_" points="65.042,90.409 64.954,90.409 64.867,90.38 64.75,90.206 64.75,90.061 64.809,90.004 
					64.897,90.004 65.101,90.061 65.277,90.061 65.423,90.004 65.628,89.858 65.774,89.742 65.95,89.597 66.389,89.22 
					66.917,88.843 67.443,88.553 67.765,88.408 68.233,88.176 68.76,87.915 69.345,87.624 69.961,87.364 70.517,87.103 
					71.014,86.87 71.424,86.696 71.717,86.551 71.922,86.435 72.214,86.261 72.42,86.087 72.654,85.971 72.888,85.971 
					73.063,86.058 73.21,86.203 73.298,86.377 73.385,86.551 73.444,86.696 73.385,86.87 73.298,86.957 73.151,87.044 
					73.034,87.103 72.859,87.19 72.39,87.422 71.834,87.683 71.22,88.002 70.604,88.32 70.049,88.582 69.814,88.698 69.61,88.785 
					69.463,88.872 69.375,88.9 69.229,88.93 69.082,88.9 68.76,88.785 68.468,88.64 68.292,88.611 68.145,88.64 67.941,88.727 
					67.619,88.872 67.238,89.075 66.858,89.336 66.448,89.568 66.126,89.771 65.833,89.974 65.687,90.091 65.482,90.235 
					65.277,90.352 65.101,90.38 				"/>
				<path id="XMLID_591_" d="M74.118,91.628l0.147,0.145h0.176l0.146-0.117l0.03-0.087l-0.03-0.087l-0.117-0.144l-0.088-0.03
					l-0.117,0.03l-0.118,0.116L74.118,91.628z M65.921,89.917l-0.263-0.175l-0.176-0.144l-0.03-0.174l0.03-0.145l0.117-0.116
					l0.147-0.087l0.176-0.058h0.204l0.234,0.058l0.322,0.116l0.41,0.145l0.468,0.174l0.527,0.203l0.586,0.174l1.289,0.319
					l1.376,0.232l1.288,0.145l0.614,0.057l0.528,0.058l0.498,0.087l0.409,0.087l0.293,0.145l0.204,0.203l0.059,0.232l-0.059,0.261
					l-0.146,0.232l-0.234,0.174l-0.293,0.087h-0.38L73.68,92.12l-0.498-0.087l-0.527-0.087l-0.586-0.087l-1.23-0.232l-1.259-0.319
					l-1.259-0.406l-0.614-0.231l-0.557-0.232l-0.498-0.204l-0.38-0.174l-0.263-0.116l-0.059-0.029L65.921,89.917L65.921,89.917z"/>
				<polygon id="XMLID_590_" points="74,91.656 74.118,91.628 74,91.686 				"/>
				<polygon id="XMLID_589_" points="74.118,91.628 74.234,91.569 74.264,91.628 74.146,91.686 74.059,91.773 74,91.686 				"/>
				<polygon id="XMLID_588_" points="74.146,91.686 74.264,91.628 74.293,91.656 74.205,91.743 74.146,91.86 74.059,91.773 				"/>
				<polygon id="XMLID_587_" points="74.205,91.743 74.293,91.656 74.322,91.656 74.264,91.773 74.234,91.917 74.146,91.86 				"/>
				<polygon id="XMLID_586_" points="74.264,91.773 74.322,91.656 74.352,91.656 74.352,91.802 74.352,91.917 74.234,91.917 				"/>
				<polygon id="XMLID_585_" points="74.352,91.802 74.352,91.656 74.352,91.656 74.381,91.802 74.41,91.917 74.352,91.917 				"/>
				<polygon id="XMLID_584_" points="74.381,91.802 74.352,91.656 74.381,91.656 74.44,91.773 74.498,91.889 74.41,91.917 				"/>
				<polygon id="XMLID_583_" points="74.41,91.656 74.44,91.773 74.381,91.656 74.381,91.656 				"/>
				<polygon id="XMLID_582_" points="74.44,91.773 74.41,91.656 74.44,91.628 74.498,91.743 74.585,91.86 74.469,91.889 				"/>
				<polygon id="XMLID_581_" points="74.498,91.743 74.44,91.628 74.44,91.628 74.556,91.686 74.673,91.773 74.585,91.86 				"/>
				<polygon id="XMLID_580_" points="74.556,91.686 74.44,91.628 74.469,91.599 74.585,91.628 74.703,91.686 74.673,91.773 				"/>
				<polygon id="XMLID_579_" points="74.585,91.628 74.469,91.599 74.469,91.569 74.615,91.569 74.732,91.569 74.703,91.686 				"/>
				<polygon id="XMLID_578_" points="74.615,91.569 74.469,91.569 74.469,91.541 74.585,91.512 74.732,91.482 74.732,91.569 				"/>
				<polygon id="XMLID_577_" points="74.585,91.512 74.469,91.541 74.469,91.541 74.585,91.482 74.703,91.425 74.732,91.482 				"/>
				<polygon id="XMLID_576_" points="74.585,91.482 74.469,91.541 74.44,91.512 74.556,91.425 74.644,91.338 74.703,91.425 				"/>
				<polygon id="XMLID_575_" points="74.556,91.425 74.44,91.512 74.41,91.482 74.498,91.367 74.585,91.25 74.644,91.338 				"/>
				<polygon id="XMLID_574_" points="74.498,91.367 74.41,91.482 74.381,91.454 74.44,91.338 74.469,91.221 74.585,91.25 				"/>
				<polygon id="XMLID_573_" points="74.44,91.338 74.381,91.454 74.352,91.454 74.352,91.308 74.352,91.193 74.469,91.221 				"/>
				<polygon id="XMLID_572_" points="74.352,91.308 74.352,91.454 74.322,91.454 74.264,91.338 74.205,91.221 74.352,91.193 				"/>
				<polygon id="XMLID_571_" points="74.293,91.454 74.264,91.338 74.322,91.454 				"/>
				<polygon id="XMLID_570_" points="74.264,91.338 74.293,91.454 74.293,91.482 74.205,91.367 74.118,91.28 74.234,91.221 				"/>
				<polygon id="XMLID_569_" points="74.205,91.367 74.293,91.482 74.264,91.482 74.146,91.425 74.03,91.367 74.089,91.308 
					74.118,91.28 				"/>
				<polygon id="XMLID_568_" points="74.146,91.425 74.264,91.482 74.234,91.541 74.118,91.482 74,91.454 74.03,91.367 				"/>
				<polygon id="XMLID_567_" points="74.118,91.482 74.234,91.541 74.234,91.569 74.118,91.569 73.971,91.569 74,91.454 				"/>
				<polygon id="XMLID_566_" points="74.118,91.569 74.234,91.569 74.234,91.599 74.118,91.628 74,91.656 73.971,91.569 				"/>
				<path id="XMLID_565_" d="M65.862,90.032l0.059-0.115L65.862,90.032z"/>
				<polygon id="XMLID_564_" points="65.921,89.917 65.862,90.032 65.628,89.887 65.716,89.8 65.774,89.684 65.98,89.8 				"/>
				<polygon id="XMLID_563_" points="65.716,89.8 65.628,89.887 65.452,89.742 65.57,89.655 65.658,89.568 65.774,89.684 				"/>
				<polygon id="XMLID_562_" points="65.57,89.655 65.452,89.742 65.394,89.684 65.364,89.597 65.482,89.539 65.599,89.481 
					65.658,89.568 				"/>
				<polygon id="XMLID_561_" points="65.482,89.539 65.364,89.597 65.307,89.423 65.452,89.423 65.57,89.423 65.599,89.481 				"/>
				<polygon id="XMLID_560_" points="65.452,89.423 65.307,89.423 65.335,89.307 65.452,89.336 65.599,89.365 65.57,89.423 				"/>
				<polygon id="XMLID_559_" points="65.452,89.336 65.335,89.307 65.394,89.191 65.511,89.249 65.599,89.336 65.599,89.365 				"/>
				<polygon id="XMLID_558_" points="65.511,89.249 65.394,89.191 65.452,89.104 65.57,89.191 65.658,89.278 65.599,89.336 				"/>
				<polygon id="XMLID_557_" points="65.57,89.191 65.452,89.104 65.57,89.017 65.628,89.133 65.716,89.249 65.658,89.278 				"/>
				<polygon id="XMLID_556_" points="65.628,89.133 65.57,89.017 65.687,88.959 65.774,88.93 65.833,89.046 65.862,89.162 
					65.716,89.249 				"/>
				<polygon id="XMLID_555_" points="65.833,89.046 65.774,88.93 66.038,88.872 66.038,89.017 66.038,89.133 65.862,89.162 				"/>
				<polygon id="XMLID_554_" points="66.038,89.017 66.038,88.872 66.126,88.9 66.126,89.017 66.126,89.133 66.038,89.133 				"/>
				<polygon id="XMLID_553_" points="66.155,88.9 66.126,89.017 66.126,88.9 				"/>
				<polygon id="XMLID_552_" points="66.126,89.017 66.155,88.9 66.272,88.93 66.419,88.959 66.36,89.075 66.331,89.191 
					66.097,89.133 				"/>
				<polygon id="XMLID_551_" points="66.36,89.075 66.419,88.959 66.741,89.075 66.682,89.191 66.652,89.307 66.331,89.191 				"/>
				<polygon id="XMLID_550_" points="66.682,89.191 66.741,89.075 67.15,89.22 67.619,89.394 67.56,89.51 67.531,89.626 
					67.062,89.452 66.652,89.307 				"/>
				<polygon id="XMLID_549_" points="67.56,89.51 67.619,89.394 68.145,89.568 68.731,89.771 69.99,90.091 69.961,90.206 
					69.931,90.322 69.258,90.178 68.643,90.004 68.058,89.83 67.531,89.626 				"/>
				<path id="XMLID_548_" d="M69.99,90.091l-0.029,0.115L69.99,90.091z"/>
				<polygon id="XMLID_547_" points="69.961,90.206 69.99,90.091 71.365,90.322 72.654,90.467 73.269,90.525 73.795,90.584 
					74.293,90.671 74.703,90.758 74.673,90.873 74.644,90.989 74.234,90.902 73.737,90.815 73.21,90.758 72.595,90.699 
					71.308,90.554 69.931,90.322 				"/>
				<path id="XMLID_546_" d="M74.644,90.989l0.029-0.116L74.644,90.989z"/>
				<polygon id="XMLID_545_" points="74.673,90.873 74.703,90.758 74.85,90.786 74.995,90.845 74.908,90.96 74.85,91.076 
					74.644,90.989 				"/>
				<polygon id="XMLID_544_" points="74.908,90.96 74.995,90.845 75.201,91.019 75.083,91.106 74.995,91.193 74.85,91.076 				"/>
				<polygon id="XMLID_543_" points="75.083,91.106 75.201,91.019 75.318,91.221 75.201,91.28 75.054,91.308 74.995,91.193 				"/>
				<polygon id="XMLID_542_" points="75.201,91.28 75.318,91.221 75.346,91.454 75.23,91.454 75.083,91.454 75.054,91.308 				"/>
				<polygon id="XMLID_541_" points="75.23,91.454 75.346,91.454 75.346,91.628 75.201,91.599 75.083,91.569 75.083,91.454 				"/>
				<polygon id="XMLID_540_" points="75.201,91.599 75.346,91.628 75.289,91.802 75.171,91.743 75.025,91.686 75.083,91.569 				"/>
				<polygon id="XMLID_539_" points="75.171,91.743 75.289,91.802 75.083,92.092 74.995,91.975 74.879,91.889 74.966,91.802 
					75.025,91.686 				"/>
				<polygon id="XMLID_538_" points="74.995,91.975 75.083,92.092 74.761,92.295 74.703,92.149 74.644,92.034 74.791,91.975 
					74.879,91.889 				"/>
				<polygon id="XMLID_537_" points="74.703,92.149 74.761,92.295 74.352,92.353 74.352,92.236 74.352,92.092 74.498,92.092 
					74.644,92.034 				"/>
				<polygon id="XMLID_536_" points="74.352,92.236 74.352,92.353 74.089,92.323 74.118,92.208 74.146,92.092 74.352,92.092 				"/>
				<path id="XMLID_535_" d="M74.089,92.323l0.029-0.115L74.089,92.323z"/>
				<polygon id="XMLID_534_" points="74.118,92.208 74.089,92.323 73.649,92.236 73.151,92.149 72.624,92.062 72.039,91.975 
					70.81,91.743 69.551,91.425 69.58,91.308 69.61,91.193 70.868,91.512 72.098,91.743 72.683,91.83 73.21,91.917 73.708,92.004 
					74.146,92.092 				"/>
				<path id="XMLID_533_" d="M69.551,91.425l0.029-0.117L69.551,91.425z"/>
				<polygon id="XMLID_532_" points="69.58,91.308 69.551,91.425 68.292,91.019 67.678,90.786 67.092,90.554 67.15,90.439 
					67.209,90.322 67.765,90.554 68.38,90.786 69.61,91.193 				"/>
				<polygon id="XMLID_531_" points="67.15,90.439 67.092,90.554 66.594,90.352 66.652,90.235 66.711,90.119 67.209,90.322 				"/>
				<polygon id="XMLID_530_" points="66.652,90.235 66.594,90.352 66.213,90.178 66.272,90.061 66.331,89.945 66.507,90.032 
					66.711,90.119 				"/>
				<polygon id="XMLID_529_" points="66.272,90.061 66.213,90.178 66.068,90.119 66.126,90.004 66.184,89.887 66.331,89.945 				"/>
				<polygon id="XMLID_528_" points="66.126,90.004 66.068,90.119 65.95,90.091 66.009,89.945 66.068,89.83 66.184,89.887 				"/>
				<polygon id="XMLID_527_" points="66.009,89.945 65.95,90.091 65.921,90.061 65.98,89.945 66.038,89.83 66.068,89.83 				"/>
				<polygon id="XMLID_526_" points="65.98,89.945 65.921,90.061 65.891,90.032 65.95,89.917 66.009,89.8 66.038,89.83 				"/>
				<polygon id="XMLID_525_" points="65.95,89.917 65.891,90.032 65.891,90.032 65.921,89.917 65.98,89.8 66.009,89.8 				"/>
				<polygon id="XMLID_524_" points="65.921,89.917 65.891,90.032 65.862,90.032 65.921,89.917 65.98,89.8 65.98,89.8 				"/>
				<polygon id="XMLID_523_" points="65.921,89.917 65.862,90.032 65.862,90.032 65.921,89.917 65.98,89.8 65.98,89.8 				"/>
				<polygon id="XMLID_522_" points="65.921,89.917 65.862,90.032 65.862,90.032 65.921,89.917 65.98,89.8 65.98,89.8 				"/>
				<path id="XMLID_518_" d="M61.501,81.969V81.65h0.351v-0.493h-0.528l0,0h-1.727H59.07v0.493h0.292v0.348l-0.146,0.232
					l-0.118,0.29l-0.059,0.291l-0.029,0.318l0.029,0.349l0.088,0.318l0.118,0.291l0.147,0.261h-0.03v0.29h-0.38v0.465h2.927v-0.465
					H61.5v-0.29l0,0l0.176-0.261l0.117-0.291l0.088-0.318l0.029-0.349l-0.029-0.318l-0.088-0.291l-0.117-0.29L61.501,81.969z
					 M61.383,81.011l1.318-2.582l-0.03-0.057l-0.058-0.117l-0.118-0.174l-0.204-0.174l-0.263-0.203l-0.351-0.174l-0.469-0.117
					l-0.557-0.057h-0.117l-0.556,0.057l-0.44,0.087l-0.38,0.174l-0.322,0.204l-0.234,0.174l-0.146,0.174l-0.089,0.087l-0.029,0.058
					l1.2,2.639L61.383,81.011L61.383,81.011z"/>
				<polygon id="XMLID_517_" points="63.257,94.731 62.935,94.412 62.554,94.151 62.116,93.919 61.677,93.745 60.769,93.514 
					59.832,93.397 59.773,93.31 59.686,93.281 59.218,93.281 59.129,93.049 59.012,92.846 58.837,92.701 58.632,92.643 
					58.514,92.671 58.398,92.73 58.222,92.962 58.105,93.223 58.047,93.514 58.076,93.687 58.134,93.832 58.251,93.977 
					58.368,94.064 58.368,94.064 58.339,94.122 58.339,94.238 58.339,94.355 58.339,94.412 58.339,94.412 58.047,94.442 
					57.929,94.499 57.871,94.557 57.871,94.616 57.929,94.703 58.047,94.877 58.076,94.964 58.047,95.109 57.959,95.311 
					57.783,95.514 57.578,95.746 57.402,95.979 57.286,96.211 57.227,96.501 57.198,96.82 57.227,97.196 57.314,97.69 57.461,98.27 
					57.578,98.734 57.637,99.111 57.666,99.46 57.637,99.749 57.578,99.952 57.519,100.126 57.49,100.214 57.461,100.243 
					57.461,100.358 58.632,100.358 59.802,100.358 59.802,100.243 59.773,100.214 59.744,100.126 59.686,99.952 59.657,99.749 
					59.627,99.46 59.627,99.111 59.686,98.734 59.832,98.27 59.979,97.69 60.067,97.196 60.096,96.82 60.067,96.501 60.008,96.211 
					59.89,95.979 59.714,95.746 59.51,95.514 59.306,95.311 59.218,95.109 59.188,94.964 59.218,94.877 59.334,94.703 
					59.393,94.616 59.393,94.557 59.334,94.499 59.218,94.442 58.924,94.412 58.924,94.412 58.924,94.355 58.924,94.238 
					58.924,94.122 58.896,94.064 58.924,94.064 59.1,93.948 59.188,93.716 59.686,93.716 59.773,93.687 59.832,93.629 
					60.651,93.716 61.471,93.919 62.232,94.268 62.583,94.47 62.906,94.731 63.228,95.079 63.462,95.485 63.608,95.92 
					63.667,96.385 63.638,96.848 63.491,97.284 63.287,97.69 62.964,98.067 62.642,97.952 62.262,97.98 61.822,98.125 
					61.383,98.386 60.973,98.793 60.74,99.228 60.681,99.46 60.651,99.662 60.71,99.836 60.798,100.01 60.944,100.126 
					61.091,100.214 61.296,100.243 61.53,100.243 62.028,100.097 62.526,99.808 62.906,99.43 63.169,98.995 63.228,98.793 
					63.228,98.589 63.228,98.415 63.14,98.241 63.462,97.864 63.697,97.458 63.842,96.994 63.901,96.501 63.872,96.037 
					63.754,95.544 63.55,95.109 				"/>
				<path id="XMLID_495_" d="M51.811,91.076L51.811,91.076v0.03V91.076z M52.162,91.656v0.03l0,0l0.029,0.057h0.03l0,0v0.03l0,0
					v-0.03v0.03v0.029l0.029,0.029l0.147,0.145l0.147,0.117l0.292,0.116h0.204h0.03h0.029l0,0l0.029-0.029h0.03l0,0l0.058-0.03
					l0.03-0.029l0.059-0.029l0.029-0.058l0.059-0.058l0.058-0.116l0.03-0.145V91.57v-0.087v-0.087l-0.03-0.087l-0.029-0.087
					l-0.029-0.058v-0.029h-0.03l0,0v-0.029l-0.029-0.03l-0.029-0.057l-0.03-0.03l-0.029-0.057l-0.059-0.058l-0.088-0.116
					L53.011,90.7l-0.088-0.058l-0.117-0.029l-0.118-0.029H52.63h-0.059h-0.029l-0.03,0.029h-0.029h-0.03l0,0h-0.029l-0.059,0.029
					l0,0l0,0l0,0l0,0v0.03h-0.029l-0.059,0.029H52.25v0.029l-0.029,0.03l-0.03,0.029l-0.029,0.029v0.058l-0.029,0.029l-0.059,0.117
					v0.116l-0.029,0.087l0.029,0.232l0.029,0.087l0.03,0.058L52.162,91.656z M51.84,91.628h0.03l0,0l0,0H51.84z M51.899,91.773
					v0.029h0.029l0,0L51.899,91.773z M53.597,90.932h-0.029l0,0l0,0H53.597z M52.865,90.38L52.865,90.38h-0.029H52.865z
					 M52.25,90.439L52.25,90.439h-0.029H52.25z M49.089,88.176l0.058,0.087l0.088,0.087L49.089,88.176z M50.26,89.917l-0.557-0.726
					l-0.439-0.639l-0.381-0.58l-0.351-0.522l-0.263-0.493l-0.234-0.406l-0.176-0.377l-0.147-0.261l-0.088-0.204V85.68l0.03-0.116
					l0.146,0.029L48.21,86l0.439,0.522l0.469,0.552l0.498,0.609l0.38,0.493l0.352,0.464l0.321,0.406l0.263,0.348l0.206,0.291
					l0.117,0.203l0.293,0.348l0.38,0.261l0.059,0.03l0.088-0.058l0,0l0.059-0.029l0.058-0.058l0,0h0.03l0.058-0.029l0,0l0.118-0.03
					l0.029-0.029h0.059h0.059l0.176-0.029l0.146,0.029l0.147,0.058h0.029h0.03l0.088,0.057l0.263,0.175l0,0l0.088,0.116h0.029
					l0.03,0.029l0.029,0.058l0.029,0.058l0.03,0.029l0.058,0.087l0.03,0.087l0.029,0.029l0.029,0.087v0.058l0.03,0.087l0.029,0.03
					v0.087l0.029,0.116v0.232l-0.058,0.203l-0.059,0.174l-0.117,0.145l-0.088,0.116l-0.088,0.058l-0.088,0.058l-0.059,0.029
					l-0.088,0.029l0,0l-0.059,0.03h-0.088h-0.176l-0.204-0.03l-0.206-0.057l-0.176-0.117l-0.234-0.174l-0.146-0.203l-0.088-0.117
					l-0.03-0.087l-0.029-0.116l-0.029-0.029v-0.03l-0.03-0.116v-0.029l-0.029-0.291l0.029-0.116v-0.058V90.96l-0.088-0.087
					l-0.322-0.232l-0.233-0.232l-0.177-0.203l-0.088-0.116l-0.409-0.117l-0.147-0.029L50.26,89.917z"/>
				<path id="XMLID_470_" d="M49.177,91.076L49.177,91.076v0.03V91.076z M48.855,91.656v0.03h-0.029l-0.03,0.057l0,0l0,0v0.03v-0.03
					v0.03l-0.029,0.029l-0.03,0.029l-0.146,0.145l-0.147,0.117l-0.263,0.116h-0.118h-0.088h-0.058l0,0h-0.03l-0.029-0.029l0,0H47.83
					l-0.03-0.03l-0.058-0.029l-0.03-0.029l-0.058-0.058l-0.059-0.058l-0.059-0.116l-0.029-0.291v-0.087l0.029-0.087l0.03-0.087
					l0.029-0.087v-0.058l0.029-0.029l0,0l0,0v-0.029l0.03-0.03l0.029-0.057l0.029-0.03l0.03-0.057l0.088-0.058l0.058-0.116
					l0.118-0.058l0.088-0.058l0.117-0.029l0.088-0.029h0.059h0.059h0.058l0.03,0.029h0.029l0,0h0.029l0,0l0.059,0.029l0,0l0,0l0,0
					h0.029v0.03h0.059l0.029,0.029l0.03,0.029v0.03l0.059,0.029v0.029l0.029,0.058l0.029,0.029l0.03,0.117l0.029,0.116v0.087
					l-0.029,0.232l-0.03,0.087v0.058L48.855,91.656z M49.089,91.773v0.029l0,0l0,0V91.773z M48.122,90.38h0.03l0,0l0,0H48.122z
					 M51.928,88.176l-0.146,0.174L51.928,88.176z M50.728,89.917l0.557-0.726l0.439-0.639l0.38-0.58l0.351-0.522l0.293-0.493
					l0.204-0.406l0.206-0.377l0.147-0.261l0.088-0.204V85.68v-0.058l-0.059-0.057l-0.118,0.029L52.807,86l-0.44,0.522l-0.497,0.552
					l-0.498,0.609l-0.381,0.493L50.64,88.64l-0.292,0.406l-0.264,0.348l-0.204,0.291l-0.147,0.203l-0.117,0.174l-0.147,0.174
					l-0.38,0.261l-0.088,0.03l-0.059-0.058h-0.029l-0.059-0.029l-0.059-0.058l0,0l0,0l-0.059-0.029h-0.029l-0.088-0.03l-0.059-0.029
					h-0.058h-0.059l-0.147-0.029l-0.176,0.029l-0.117,0.058h-0.03h-0.029l-0.117,0.057l-0.234,0.175h-0.029L47.476,90.7l0,0
					l-0.03,0.029l-0.058,0.058v0.058l-0.03,0.029l-0.059,0.087l-0.058,0.087v0.029l-0.03,0.087l-0.029,0.058l-0.029,0.087v0.03
					l-0.03,0.087v0.116l0.03,0.435l0.058,0.174l0.118,0.145l0.117,0.116l0.059,0.058l0.088,0.058l0.088,0.029l0.059,0.029h0.029
					l0.059,0.03h0.088h0.176l0.176-0.03l0.234-0.057l0.204-0.117l0.206-0.174l0.146-0.203l0.059-0.117l0.029-0.087l0.059-0.116
					v-0.029v-0.03l0.029-0.116l0.03-0.029V91.22v-0.116l-0.03-0.058l0.03-0.087l0.058-0.087l0.322-0.232l0.263-0.232l0.147-0.203
					l0.088-0.116l0.439-0.117l0.147-0.029C50.728,89.943,50.728,89.917,50.728,89.917z"/>
			</g>
		</g>
	</g>
</g>
</svg>
